<svg xmlns="http://www.w3.org/2000/svg" xmlns:xlink="http://www.w3.org/1999/xlink" viewBox="0 0 121.59 121.59"><defs><style>.cls-1{mask:url(#mask);filter:url(#luminosity-noclip-4);}.cls-10,.cls-13,.cls-15,.cls-18,.cls-2,.cls-4,.cls-6{mix-blend-mode:multiply;}.cls-2{fill:url(#linear-gradient);}.cls-3{mask:url(#mask-2);filter:url(#luminosity-noclip-5);}.cls-4{fill:url(#radial-gradient);}.cls-5{mask:url(#mask-3);filter:url(#luminosity-noclip-6);}.cls-6{fill:url(#radial-gradient-2);}.cls-7{isolation:isolate;}.cls-8{fill:url(#Безымянный_градиент_20);}.cls-11,.cls-13,.cls-14,.cls-15,.cls-17,.cls-9{fill:#687c8c;stroke:#020202;}.cls-11,.cls-13,.cls-14,.cls-15,.cls-17,.cls-19,.cls-23,.cls-24,.cls-25,.cls-29,.cls-30,.cls-31,.cls-32,.cls-9{stroke-miterlimit:10;}.cls-11,.cls-13,.cls-14,.cls-15,.cls-17,.cls-32,.cls-9{stroke-width:0.5px;}.cls-11,.cls-22{opacity:0.5;}.cls-12{mask:url(#mask-4);}.cls-13{opacity:0.4;}.cls-14{opacity:0.8;}.cls-16{mask:url(#mask-5);}.cls-17,.cls-21,.cls-27{opacity:0.7;}.cls-17,.cls-21{mix-blend-mode:screen;}.cls-18{opacity:0.3;}.cls-19{fill:#6b4b3b;stroke-width:0.25px;}.cls-19,.cls-23,.cls-24,.cls-25,.cls-30,.cls-32{stroke:#000;}.cls-20{mask:url(#mask-6);}.cls-23{fill:#7f7f7f;}.cls-24,.cls-28{fill:#b6b6b6;}.cls-25,.cls-29,.cls-30,.cls-31,.cls-32{fill:none;}.cls-26{fill:#ffba07;}.cls-27{fill:#9a6f5c;}.cls-29{stroke:#050505;}.cls-29,.cls-30,.cls-31{stroke-width:0.45px;}.cls-31{stroke:#0a0a0a;}.cls-33{filter:url(#luminosity-noclip-3);}.cls-34{filter:url(#luminosity-noclip-2);}.cls-35{filter:url(#luminosity-noclip);}</style><filter id="luminosity-noclip" x="18.43" y="-7674.12" width="8.33" height="32766" filterUnits="userSpaceOnUse" color-interpolation-filters="sRGB"><feFlood flood-color="#fff" result="bg"/><feBlend in="SourceGraphic" in2="bg"/></filter><mask id="mask" x="18.43" y="-7674.12" width="8.33" height="32766" maskUnits="userSpaceOnUse"><g class="cls-35"/></mask><linearGradient id="linear-gradient" x1="26.72" y1="59.04" x2="18.12" y2="60.91" gradientUnits="userSpaceOnUse"><stop offset="0.27"/><stop offset="1" stop-color="#fff"/></linearGradient><filter id="luminosity-noclip-2" x="99.4" y="-7674.12" width="8.09" height="32766" filterUnits="userSpaceOnUse" color-interpolation-filters="sRGB"><feFlood flood-color="#fff" result="bg"/><feBlend in="SourceGraphic" in2="bg"/></filter><mask id="mask-2" x="99.4" y="-7674.12" width="8.09" height="32766" maskUnits="userSpaceOnUse"><g class="cls-34"/></mask><radialGradient id="radial-gradient" cx="81.9" cy="73.73" r="7.82" gradientTransform="translate(7.82 -20.11) scale(1.14 1.18)" gradientUnits="userSpaceOnUse"><stop offset="0.07"/><stop offset="0.8" stop-color="#fff"/></radialGradient><filter id="luminosity-noclip-3" x="19.62" y="-7674.12" width="47.41" height="32766" filterUnits="userSpaceOnUse" color-interpolation-filters="sRGB"><feFlood flood-color="#fff" result="bg"/><feBlend in="SourceGraphic" in2="bg"/></filter><mask id="mask-3" x="19.62" y="-7674.12" width="47.41" height="32766" maskUnits="userSpaceOnUse"><g class="cls-33"/></mask><radialGradient id="radial-gradient-2" cx="47.35" cy="95.67" r="45.99" xlink:href="#radial-gradient"/><linearGradient id="Безымянный_градиент_20" x1="60.8" y1="121.59" x2="60.8" gradientUnits="userSpaceOnUse"><stop offset="0" stop-color="#0054e2"/><stop offset="1" stop-color="#35a2f4"/></linearGradient><filter id="luminosity-noclip-4" x="18.18" y="53.59" width="8.95" height="11.27" filterUnits="userSpaceOnUse" color-interpolation-filters="sRGB"><feFlood flood-color="#fff" result="bg"/><feBlend in="SourceGraphic" in2="bg"/></filter><mask id="mask-4" x="18.18" y="53.59" width="8.95" height="11.27" maskUnits="userSpaceOnUse"><g class="cls-1"><path class="cls-2" d="M18.43,59c0,2.09,3.12,4,8.33,5.53a44.21,44.21,0,0,1-1.61-10.56C20.91,55.36,18.43,57.09,18.43,59Z"/></g></mask><filter id="luminosity-noclip-5" x="99.15" y="59.9" width="8.59" height="5.67" filterUnits="userSpaceOnUse" color-interpolation-filters="sRGB"><feFlood flood-color="#fff" result="bg"/><feBlend in="SourceGraphic" in2="bg"/></filter><mask id="mask-5" x="99.15" y="59.9" width="8.59" height="5.67" maskUnits="userSpaceOnUse"><g class="cls-3"><path class="cls-4" d="M100.42,62.45a6.42,6.42,0,0,1,5.5,2.16c2.39,2.68,2.33-3.06-2.16-4.19S98.43,62,100.42,62.45Z"/></g></mask><filter id="luminosity-noclip-6" x="19.37" y="64.53" width="47.68" height="41.86" filterUnits="userSpaceOnUse" color-interpolation-filters="sRGB"><feFlood flood-color="#fff" result="bg"/><feBlend in="SourceGraphic" in2="bg"/></filter><mask id="mask-6" x="19.37" y="64.53" width="47.68" height="41.86" maskUnits="userSpaceOnUse"><g class="cls-5"><path class="cls-6" d="M19.63,64.91S38.51,73.37,67,70.78c0,0-16.68,1.66-27.26,1.85s-9.32,27,7.89,33.28C40.48,107.94,18.93,96.81,19.63,64.91Z"/></g></mask></defs><g class="cls-7"><g id="Слой_2" data-name="Слой 2"><g id="Слой_1-2" data-name="Слой 1"><rect class="cls-8" width="121.59" height="121.59" rx="27.45"/><path class="cls-9" d="M32.84,102.06l.26.21.75.54c.34.22.74.5,1.22.77s1,.58,1.63.91c.3.16.63.31,1,.47s.67.33,1,.48l1.11.46,1.17.44c.79.32,1.64.55,2.49.82.43.14.87.22,1.3.34l1.32.32c.89.17,1.78.36,2.66.5s1.75.24,2.59.33l2.44.18c.78,0,1.52,0,2.2,0s1.3,0,1.85,0l1.43-.06,1.25,0-1.25.1-1.43.12a17.58,17.58,0,0,1-1.85.07c-.69,0-1.42,0-2.21,0l-2.45-.14c-.85-.08-1.73-.21-2.62-.31s-1.77-.32-2.67-.48l-1.33-.34c-.44-.12-.88-.21-1.31-.35-.85-.28-1.7-.52-2.5-.85-.4-.15-.79-.29-1.18-.45l-1.1-.5c-.36-.16-.7-.33-1-.5s-.65-.33-1-.5c-.59-.34-1.14-.65-1.61-1s-.86-.59-1.19-.82A12.59,12.59,0,0,1,32.84,102.06Z"/><path class="cls-9" d="M38,106.71l.2.18c.13.12.34.28.61.49a11.43,11.43,0,0,0,1,.68c.2.14.41.26.64.39s.45.28.7.4c.51.26,1.06.56,1.66.8s1.24.5,1.9.75c.33.13.68.22,1,.33s.7.23,1.06.31l1.09.26.55.13.56.1c.74.12,1.48.29,2.22.35l1.1.13.54.06.53,0,2,.11H58l.74,0,1.19-.07,1-.06-1,.12-1.19.12-.73.08-.81,0-1.84.06-2-.06-.54,0-.55-.06-1.1-.11c-.75-.06-1.5-.22-2.25-.34l-.56-.1-.56-.14-1.1-.27c-.36-.09-.71-.22-1.06-.32s-.71-.21-1-.35a17.49,17.49,0,0,1-1.9-.8A18.06,18.06,0,0,1,41,109c-.25-.14-.48-.29-.7-.43s-.43-.28-.62-.42c-.38-.26-.7-.52-1-.73a7.17,7.17,0,0,1-.58-.53A2.58,2.58,0,0,1,38,106.71Z"/><g class="cls-10"><path class="cls-11" d="M16.16,59s-.63,16.41,6.47,30.4C18.73,78.4,18,66.24,18,59Z"/></g><g class="cls-10"><g class="cls-12"><path class="cls-9" d="M18.43,59c0,2.09,3.12,4,8.33,5.53a44.21,44.21,0,0,1-1.61-10.56C20.91,55.36,18.43,57.09,18.43,59Z"/></g></g><path class="cls-9" d="M75.76,102.6c0,5.35-8.84,9.68-19.74,9.68S36.29,108,36.29,102.6,45.13,92.93,56,92.93,75.76,97.26,75.76,102.6Z"/><g class="cls-10"><path class="cls-9" d="M74.9,105.43a5.29,5.29,0,0,0,.86-2.83c0-5.34-8.84-9.67-19.74-9.67s-19.73,4.33-19.73,9.67a5.34,5.34,0,0,0,.87,2.84C41.62,107.62,57.54,114.08,74.9,105.43Z"/></g><path class="cls-9" d="M103.19,59.62c-4.82-.8-7.92,3.52-7.92,3.52-.23,2.09-.51,4.06-.81,5.91,1.82-1.64,4.83-3.7,7.54-2.54,4.24,1.81,3.73,15.59-7.46,24a9.09,9.09,0,0,1-7.1.7,21,21,0,0,1-3.51,4.91c2.17.31,11.34,1.44,19.41-9.13C116.86,68.43,108,60.42,103.19,59.62Z"/><path class="cls-13" d="M106.4,72.41c.23-8.65-7.4-8.63-9.42-7-1,.76-.94-1.18-.65-3.41a8.5,8.5,0,0,0-1.06,1.16c-.23,2.09-.51,4.06-.81,5.91,1.82-1.64,4.83-3.7,7.54-2.54,4.24,1.81,3.73,15.59-7.46,24a9.09,9.09,0,0,1-7.1.7c-.29.53-.58,1-.86,1.45C100.5,95.47,106.26,78.13,106.4,72.41Z"/><path class="cls-9" d="M100.65,64.1h.28a4.65,4.65,0,0,1,.77,0,3,3,0,0,1,.55.09c.2,0,.41.1.64.16s.46.18.71.27l.36.2a2.4,2.4,0,0,1,.37.22l.37.27c.12.09.23.21.35.31a5.42,5.42,0,0,1,.67.75,2.57,2.57,0,0,1,.29.44l.28.46c.14.34.3.68.42,1,.05.18.1.36.16.55a5.07,5.07,0,0,1,.13.56c.06.39.14.76.17,1.18l.06,1.16c0,.4,0,.8,0,1.21s-.1.79-.15,1.18-.14.78-.21,1.16-.19.76-.28,1.13-.21.73-.33,1.08a9,9,0,0,1-.36,1c-.12.33-.24.65-.38,1-.26.63-.54,1.2-.8,1.72l-.38.75c-.14.23-.26.45-.38.66-.24.41-.45.76-.64,1s-.33.51-.44.66a2.53,2.53,0,0,1-.16.22s.19-.34.5-.94c.15-.3.34-.68.54-1.1s.41-.92.64-1.45.46-1.12.69-1.75c.12-.31.23-.63.33-1s.23-.66.32-1c.22-.69.38-1.43.54-2.17.07-.37.15-.74.2-1.12s.09-.76.13-1.14l.06-1.14c0-.38,0-.77-.05-1.16,0-.16,0-.36-.06-.54s-.05-.37-.07-.55a5,5,0,0,0-.12-.53c0-.17-.08-.35-.13-.52-.1-.34-.24-.65-.36-1l-.23-.44a3.58,3.58,0,0,0-.25-.42,7,7,0,0,0-.58-.72c-.11-.11-.2-.22-.31-.32l-.33-.27a2.54,2.54,0,0,0-.34-.23l-.33-.22c-.23-.11-.44-.23-.65-.31a4.44,4.44,0,0,0-.6-.22,3.23,3.23,0,0,0-.53-.14A6.08,6.08,0,0,0,100.65,64.1Z"/><path class="cls-9" d="M103.83,77.49s0,.35-.19,1a24.53,24.53,0,0,1-.73,2.43c-.19.49-.39,1-.65,1.57s-.52,1.12-.84,1.7-.68,1.16-1.07,1.72c-.2.29-.41.56-.62.84s-.43.55-.67.81-.47.53-.72.77l-.37.36-.39.35A15.15,15.15,0,0,1,96,90.21c-.27.18-.55.33-.82.49l-.82.41a11,11,0,0,1-1.57.59l-.36.11-.36.08-.65.14-1.07.14-.93,0L90.3,92c.3-.05.64-.15,1-.25.2-.05.41-.13.62-.2l.34-.1.35-.14a14.33,14.33,0,0,0,1.48-.67c.24-.14.51-.28.77-.44s.52-.32.77-.5a15.61,15.61,0,0,0,1.52-1.22l.37-.34.35-.35c.24-.24.46-.5.69-.75s.44-.51.65-.77.42-.54.61-.81c.39-.55.76-1.1,1.09-1.65s.63-1.09.9-1.62.51-1,.73-1.5c.42-1,.75-1.76,1-2.33.1-.29.17-.51.23-.67S103.83,77.49,103.83,77.49Z"/><path class="cls-14" d="M102.11,59.49a7,7,0,0,1,.88.16,10.18,10.18,0,0,1,2.22.8,9.64,9.64,0,0,1,2.71,2A8.54,8.54,0,0,1,109.07,64a3.75,3.75,0,0,1,.24.44c.08.15.16.3.23.45a9.61,9.61,0,0,1,.36.94l.15.49c0,.16.07.32.11.49.08.32.13.66.18,1s.06.66.09,1,0,.64,0,1,0,.62,0,.92,0,.6-.09.89-.08.56-.11.83-.1.52-.15.77c-.09.49-.21.93-.32,1.33s-.2.73-.29,1l-.28.87.22-.89q.12-.42.24-1c.08-.4.18-.84.26-1.34,0-.24.08-.5.12-.76l.09-.83c0-.28,0-.57,0-.87a6.88,6.88,0,0,0,0-.91,7.6,7.6,0,0,0,0-1c0-.31,0-.63-.1-1s-.1-.65-.18-1c0-.16-.07-.32-.11-.48l-.15-.47c-.09-.31-.23-.61-.35-.91s-.14-.29-.21-.44a4.13,4.13,0,0,0-.22-.42,9.1,9.1,0,0,0-1.1-1.52,11.73,11.73,0,0,0-1.28-1.19,12.67,12.67,0,0,0-1.32-.85,12.08,12.08,0,0,0-2.15-.9C102.43,59.55,102.11,59.49,102.11,59.49Z"/><path class="cls-15" d="M86.23,96.31h.24c.17,0,.4,0,.69,0s.66,0,1.07-.08l.65-.09L89.6,96c.25,0,.5-.11.77-.17s.55-.12.82-.21c.56-.18,1.14-.35,1.73-.59.3-.12.61-.21.9-.36l.89-.43a7.63,7.63,0,0,0,.89-.48l.88-.51c.56-.38,1.13-.75,1.68-1.15s1-.83,1.52-1.25L101,89.59c.42-.42.77-.85,1.12-1.23a11.37,11.37,0,0,0,.91-1.08l.67-.86.58-.75-.53.78-.63.91a5.64,5.64,0,0,1-.39.55l-.48.57c-.34.39-.68.84-1.09,1.27l-1.32,1.33c-.49.43-1,.84-1.53,1.28s-1.12.8-1.69,1.19l-.9.5a8.68,8.68,0,0,1-.9.48l-.91.42c-.3.15-.62.24-.92.36a14.73,14.73,0,0,1-1.76.55c-.28.09-.57.13-.84.19s-.53.12-.78.14l-.73.1c-.23,0-.45,0-.66,0a10.36,10.36,0,0,1-1.07,0A8.09,8.09,0,0,1,86.23,96.31Z"/><g class="cls-16"><path class="cls-17" d="M100.42,62.45a6.42,6.42,0,0,1,5.5,2.16c2.39,2.68,2.33-3.06-2.16-4.19S98.43,62,100.42,62.45Z"/></g><path class="cls-9" d="M93.35,57.54a1.09,1.09,0,0,1,.11.23,1.92,1.92,0,0,1,.16.72,3,3,0,0,1-.18,1.15,4.28,4.28,0,0,1-.78,1.28,7.14,7.14,0,0,1-1.3,1.19c-.24.19-.51.35-.78.53s-.56.33-.86.49a19.81,19.81,0,0,1-1.86.85c-.65.26-1.32.49-2,.71l-1,.3-1,.27c-.33.09-.67.17-1,.24l-1,.21c-.65.13-1.27.26-1.86.35s-1.16.19-1.68.25c-1,.14-1.91.22-2.52.28l-1,.08.94-.2,1.08-.22,1.4-.3c.51-.1,1.06-.24,1.65-.36s1.19-.29,1.83-.43,1.28-.32,1.94-.5l1-.27,1-.31a28.39,28.39,0,0,0,3.79-1.46l.85-.43c.26-.16.53-.31.77-.48a7.32,7.32,0,0,0,1.3-1,4.15,4.15,0,0,0,.82-1.13,2.5,2.5,0,0,0,.28-1,2,2,0,0,0-.07-.71A1.29,1.29,0,0,0,93.35,57.54Z"/><path class="cls-9" d="M95.89,59s1.92,49.83-38.48,49.83H54.63C14.24,108.86,16.16,59,16.16,59Z"/><g class="cls-18"><path class="cls-9" d="M95.89,59h-4.4C90.78,76.58,84.3,111.19,44,107.54a40.9,40.9,0,0,0,10.63,1.32h2.78C97.81,108.86,95.89,59,95.89,59Z"/></g><path class="cls-9" d="M56,48.77c-22,0-39.87,4.68-39.87,10.46S34,69.69,56,69.69,95.9,65,95.9,59.23,78.05,48.77,56,48.77Z"/><path class="cls-19" d="M56,67.77c-20.76,0-37.59-3.95-37.59-8.81S35.26,50.15,56,50.15s37.6,3.94,37.6,8.81S76.79,67.77,56,67.77Z"/><path class="cls-9" d="M17.23,61.22a.65.65,0,0,0,.08.13c.07.08.16.21.3.35a8.51,8.51,0,0,0,1.33,1.07c.31.19.64.42,1,.63l1.28.64a33,33,0,0,0,3.21,1.18l.91.29c.3.11.63.17,1,.26l2,.52c.7.15,1.43.28,2.16.43s1.49.32,2.27.41l2.36.35,1.2.18,1.22.13,2.46.26,1.25.14,1.25.08,2.49.18,1.24.1.62,0,.62,0c1.65,0,3.26.14,4.83.2l1.16.05,1.15,0,2.21,0,4,.09c2.51,0,4.61,0,6.07,0l1.71,0h.6l-.6,0c-.39,0-1,.08-1.7.12-1.46.08-3.56.22-6.07.34l-4.06.08-2.22,0-1.15,0-1.17,0c-1.57,0-3.2-.07-4.85-.13l-.62,0-.63,0L45,69.4l-2.51-.17-1.26-.1L39.94,69l-2.49-.28-1.23-.15L35,68.36,32.64,68c-.78-.11-1.54-.3-2.28-.47s-1.47-.33-2.17-.51c-1.39-.42-2.73-.75-3.9-1.24l-.88-.33L23,65.26l-.4-.19-1.49-.71-1.25-.73c-.39-.23-.71-.5-1-.71a7.88,7.88,0,0,1-1.26-1.19A2.67,2.67,0,0,1,17.23,61.22Z"/><g class="cls-20"><g class="cls-21"><path class="cls-9" d="M19.63,64.91S38.51,73.37,67,70.78c0,0-16.68,1.66-27.26,1.85s-9.32,27,7.89,33.28C40.48,107.94,18.93,96.81,19.63,64.91Z"/></g></g><g class="cls-22"><path class="cls-9" d="M28.88,52.69s-.64.13-1.75.45a29.19,29.19,0,0,0-4.49,1.63,11.9,11.9,0,0,0-2.7,1.68,4.66,4.66,0,0,0-1.09,1.32c-.07.13-.11.27-.17.41a3.2,3.2,0,0,0-.1.42,1.71,1.71,0,0,0,0,.45,1.64,1.64,0,0,0,0,.22l.05.21a3.33,3.33,0,0,0,1,1.53,8.28,8.28,0,0,0,1.55,1.12,19.46,19.46,0,0,0,3.58,1.58,54.78,54.78,0,0,0,7.48,1.91c1.22.22,2.39.43,3.51.59s2.18.32,3.16.45l2.67.32,2.07.22,1.81.17-1.81-.11-2.08-.16-2.68-.26c-2-.22-4.26-.51-6.7-1A53.12,53.12,0,0,1,24.66,64,20,20,0,0,1,21,62.39a8.25,8.25,0,0,1-1.59-1.17,3.65,3.65,0,0,1-1.06-1.66l-.06-.25c0-.08,0-.17,0-.25a2.42,2.42,0,0,1,.14-1,2.44,2.44,0,0,1,.19-.44,4.76,4.76,0,0,1,1.16-1.38,11.8,11.8,0,0,1,2.78-1.66,23,23,0,0,1,2.53-1c.77-.25,1.45-.43,2-.57C28.23,52.8,28.88,52.69,28.88,52.69Z"/></g><path class="cls-23" d="M81.86,51.68c3.54-.3,7.31-.77,11.25-1.45q2.83-.49,5.47-1.07A15.16,15.16,0,0,1,96,52.48a15.43,15.43,0,0,1-5.44,3.45l-.46,1.56a26.61,26.61,0,0,1-3.46,2.29c-.72.4-1.42.75-2.11,1.06a27.61,27.61,0,0,1-3.78,1.36Q81.3,57,81.86,51.68Z"/><path class="cls-23" d="M47.64,53.17a16.45,16.45,0,0,1-5.54-.75,16.91,16.91,0,0,1-5.43-2.9l-.19-1.47a8.57,8.57,0,0,1-3.35-2.77,8.76,8.76,0,0,1-1.51-3.62A68.83,68.83,0,0,0,39.94,44c2.37.5,4.59.83,6.64,1.06Z"/><path class="cls-24" d="M82.34,63.32c1.5-11.06,2.84-19.32,4.18-26.21.73-3.72,1.94-9.55-.91-14.31a11.47,11.47,0,0,0-2.87-3.22,23.15,23.15,0,0,0-21.28-2.86,27.91,27.91,0,0,0-6.87,6.09,30,30,0,0,0-4.08,6.65c-2.42,1.14-4.37,2.22-5.76,3-4.94,2.92-6.42,4.65-7,5.32a17.72,17.72,0,0,0-2.16,3.44l5-.29a11.7,11.7,0,0,0,2,2.78,11.28,11.28,0,0,0,3.73,2.49,17.3,17.3,0,0,0-1.69,5,17.65,17.65,0,0,0-.23,3.3"/><path class="cls-24" d="M50.51,29.46a22.06,22.06,0,0,1,5.08-.52,21.46,21.46,0,0,1,5.47.8"/><path class="cls-24" d="M57.47,50.19a32,32,0,0,1-5-1.22,31.62,31.62,0,0,1-6-2.72"/><path class="cls-25" d="M52,22a5.18,5.18,0,0,0,5.83,1.85"/><line class="cls-24" x1="55.63" y1="18.38" x2="59.35" y2="18.19"/><path class="cls-24" d="M62.37,25.52a4.73,4.73,0,0,0,2.44,1.62A4.8,4.8,0,0,0,67.62,27"/><line class="cls-24" x1="66.04" y1="19.43" x2="69.59" y2="21.43"/><path d="M76,12.86a24.1,24.1,0,0,0-2.68,5.58c-.2.6.92.59,1.23.54.57-.09,1.42-.33,1.66-.94a8.26,8.26,0,0,1,1.36-2.28,5.93,5.93,0,0,1,.82-.84c.18-.16.37-.31.56-.45a4,4,0,0,1,.44-.3L77.06,14l-1.2,2.8A10.62,10.62,0,0,0,75,19.47c-.06.41.37.52.7.55a3,3,0,0,0,1.62-.38,14.78,14.78,0,0,0,2.75-2.11,20.08,20.08,0,0,0,2.44-2.44l-2.78.2L78.2,20.41c-.16.54.76.57,1,.55A2.68,2.68,0,0,0,81,20.21l3.61-3.77c.48-.5-.41-.77-.76-.76a2.67,2.67,0,0,0-1.92.77l-3.61,3.77L81.09,20l1.55-5.12c.16-.54-.76-.57-1-.55a2.58,2.58,0,0,0-1.74.76,16.62,16.62,0,0,1-2.06,2,14,14,0,0,1-2.21,1.75l2.32.17a11.07,11.07,0,0,1,.85-2.67c.39-.93.79-1.86,1.19-2.8.17-.39-.48-.53-.7-.55a2.86,2.86,0,0,0-1.62.38,10.28,10.28,0,0,0-4.31,5L76.2,18a22.27,22.27,0,0,1,2.47-5.19c.35-.55-.31-.77-.77-.76a2.47,2.47,0,0,0-1.91.77Z"/><path class="cls-26" d="M60.8,30.22c-4.95-1.63-8.31-.87-9.94-.31a39.74,39.74,0,0,0-5.32,2.75,46.72,46.72,0,0,0-5.31,3.44A10.65,10.65,0,0,0,38.14,38a11.16,11.16,0,0,0-1.69,2.73l1.8-.11,1.66-.11a29.94,29.94,0,0,1,4.82,0l2,.24.93.13.46.08a11.54,11.54,0,0,1,2.44.85,22.16,22.16,0,0,0,3.47.83c1.78.4,2.43.57,3.11.68l.63.09c.91.13,1.65.2,2.17.24Z"/><path class="cls-24" d="M59.86,44.19a44.6,44.6,0,0,1-5.59-1c-3.7-.88-5.11-1.74-8.15-2.16A22.73,22.73,0,0,0,40.64,41"/><path class="cls-26" d="M59.81,44.67a39.67,39.67,0,0,1-7.23-1.37c-2.81-.82-5-1.77-8.42-1.94a21.74,21.74,0,0,0-2.7,0,12.09,12.09,0,0,0,2.09,2.46A11.93,11.93,0,0,0,45.07,45a9.1,9.1,0,0,0,.87.5c.45.23.6.26,1.09.5.34.18.41.23.79.45s.82.42,1.26.63c2,.91,3.44,1.41,3.44,1.41a27.44,27.44,0,0,0,5,1.21Z"/><path class="cls-27" d="M31.52,54.13a23.16,23.16,0,0,0-5,.42,10.14,10.14,0,0,0-3.38,1.15,8.05,8.05,0,0,0-2.18,2A3,3,0,0,0,20.73,60a3.44,3.44,0,0,0,1.85,1.88c4.63,2.42,17.34,3.82,17.45,3.83s3.68.44,7.07.75a102.43,102.43,0,0,0,11.77.46c0-.09-2.27-.21-6.33-.87-1.45-.23-2.67-.46-3.58-.64,0,0-13-2.24-19.48-4.27A3.92,3.92,0,0,1,27.71,60a3.68,3.68,0,0,1-1-2.51C26.88,55.86,28.81,54.27,31.52,54.13Z"/><path class="cls-28" d="M44.5,54.42A72.79,72.79,0,0,0,61.65,61a72.64,72.64,0,0,0,20.3,2"/><line class="cls-25" x1="44.5" y1="53.98" x2="44.5" y2="54.85"/><path class="cls-29" d="M42.66,53a11,11,0,0,0,1,1.63A12.77,12.77,0,0,0,50.11,59a104.42,104.42,0,0,0,12.06,3.85,73.91,73.91,0,0,0,17.5,1.65c1.15,0,3.18-.19,4-1.57a3,3,0,0,0,.39-1.86"/><path class="cls-30" d="M40.67,52.32a11.49,11.49,0,0,0,3,4.81c.44.43,1.62,1.47,6.51,3.38,1.63.64,3.52,1.32,5.67,2"/><path class="cls-30" d="M58.9,63.29A57.19,57.19,0,0,0,72,65.72a44.49,44.49,0,0,0,7.43,0"/><path class="cls-30" d="M85.88,60.66a4.77,4.77,0,0,1-.38,2.48A3.1,3.1,0,0,1,85,64a1.67,1.67,0,0,1-1.09.72"/><path class="cls-31" d="M41.25,56.25a15.17,15.17,0,0,0,2.87,3c1.69,1.47,3.34,2.13,6.14,3.21.55.21,2.22.85,4.68,1.53a62.31,62.31,0,0,0,6.65,1.6"/><path class="cls-31" d="M39.22,51.71a4.85,4.85,0,0,0,.26,1.85,6.32,6.32,0,0,0,.78,1.57"/><path class="cls-31" d="M63.69,66a24.94,24.94,0,0,0,2.87.67A27.6,27.6,0,0,0,71,67"/><path class="cls-32" d="M83.93,54a22.81,22.81,0,0,0,4.36-.56,23.26,23.26,0,0,0,3.79-1.21"/><path class="cls-32" d="M83.28,56.59a12.74,12.74,0,0,0,2-.2,13,13,0,0,0,1.82-.46"/><path class="cls-32" d="M45.46,48a22.24,22.24,0,0,1-8-2.75"/><path class="cls-32" d="M44.68,49.92c-.61-.08-1.27-.19-2-.35-.45-.1-.87-.22-1.26-.34"/></g></g></g></svg>